<?xml version="1.0" standalone="no"?>
<!DOCTYPE svg PUBLIC "-//W3C//DTD SVG 20010904//EN"
 "http://www.w3.org/TR/2001/REC-SVG-20010904/DTD/svg10.dtd">
<svg version="1.0" xmlns="http://www.w3.org/2000/svg"
 width="1000.000000pt" height="1332.000000pt" viewBox="0 0 1000.000000 1332.000000"
 preserveAspectRatio="xMidYMid meet">

<g transform="translate(0.000000,1332.000000) scale(0.100000,-0.100000)"
fill="#000000" stroke="none">
<path d="M4275 12943 c-216 -11 -478 -60 -845 -158 -279 -75 -332 -97 -448
-185 -102 -76 -173 -172 -203 -273 -23 -75 -24 -48 5 -540 8 -148 18 -337 21
-420 3 -84 10 -174 15 -202 5 -27 12 -86 15 -130 4 -44 13 -125 22 -180 25
-162 38 -140 -118 -209 -75 -34 -179 -78 -230 -99 -52 -21 -105 -43 -118 -48
-94 -38 214 -89 543 -89 l129 0 -7 49 c-7 54 -1 81 19 81 7 0 15 6 18 13 2 6
7 9 11 6 10 -10 -13 -61 -24 -54 -13 8 -13 -6 1 -61 6 -25 17 -44 25 -44 21 0
35 -35 35 -88 0 -56 16 -102 35 -102 18 0 34 -32 34 -67 0 -16 20 -61 45 -103
24 -41 45 -78 45 -82 0 -4 -10 -8 -22 -10 -43 -6 -45 -48 -9 -123 68 -138 149
-193 166 -114 10 46 -23 125 -79 186 -27 30 -47 55 -45 56 12 8 95 25 101 21
5 -3 15 -19 24 -37 9 -17 27 -39 39 -49 15 -11 26 -34 30 -61 10 -58 114 -281
161 -342 67 -89 203 -440 207 -537 1 -27 6 -48 11 -48 4 0 5 -7 2 -16 -4 -9
-1 -26 7 -38 7 -12 12 -33 12 -48 -1 -16 2 -28 6 -28 4 0 12 -13 18 -30 5 -16
17 -30 26 -30 27 0 65 31 65 53 0 11 2 18 5 15 3 -3 21 9 39 25 27 24 32 35
26 51 -8 22 -7 39 4 74 5 14 1 21 -14 25 -11 3 -20 10 -20 16 0 6 6 8 13 5 9
-3 12 4 11 23 0 15 -6 29 -12 31 -8 2 -9 9 -3 20 12 23 12 123 0 138 -6 7 -3
22 7 42 13 27 14 41 4 87 -6 30 -16 57 -21 60 -5 4 -6 17 -3 31 4 15 2 24 -6
24 -7 0 -9 12 -6 36 6 33 5 35 -16 29 -21 -6 -22 -5 -5 8 22 18 21 23 -3 50
-11 12 -18 27 -16 34 3 7 -3 29 -14 48 -11 20 -20 46 -20 58 0 13 -5 28 -11
34 -6 6 -11 17 -13 24 -2 15 -30 79 -52 121 -8 14 -14 33 -14 41 0 8 -17 29
-37 47 -98 82 -98 82 -53 164 19 35 28 65 26 84 -2 16 0 35 5 43 8 11 13 9 30
-11 19 -23 22 -23 31 -7 7 13 13 15 22 8 9 -8 16 -4 26 14 10 19 16 22 22 13
6 -10 8 -10 8 0 0 6 5 12 10 12 6 0 9 -3 8 -7 -2 -12 14 -46 29 -61 7 -7 38
-27 69 -45 69 -38 74 -58 32 -124 -28 -43 -29 -49 -22 -127 8 -106 9 -110 16
-121 3 -6 4 -21 3 -35 -1 -14 2 -31 8 -38 5 -7 11 -31 13 -53 2 -23 8 -47 13
-53 11 -13 10 -34 -2 -53 -12 -20 3 -35 29 -30 13 2 24 0 24 -4 0 -5 -9 -9
-20 -9 -25 0 -25 -5 0 -32 10 -12 17 -26 13 -31 -3 -6 2 -16 12 -23 15 -11 16
-19 7 -53 -10 -43 -6 -51 32 -65 10 -3 16 -9 12 -13 -8 -9 24 -43 41 -43 7 0
13 -3 13 -7 0 -5 25 -34 55 -67 30 -32 55 -65 55 -73 0 -8 6 -13 13 -10 6 2
18 -2 25 -9 7 -8 9 -14 5 -15 -4 0 28 -14 72 -30 87 -33 125 -61 125 -93 0
-18 2 -19 11 -6 8 12 12 12 16 2 4 -10 8 -10 19 -1 12 10 16 8 21 -9 3 -12 12
-22 20 -22 12 0 14 12 10 63 -3 34 -1 69 4 79 6 11 4 18 -8 23 -15 5 -15 7 -3
16 10 5 11 12 5 17 -5 4 -11 21 -11 37 -1 17 -11 61 -23 99 -11 37 -25 104
-31 147 -6 44 -24 118 -39 166 -20 58 -27 94 -22 112 4 14 4 60 -1 101 -5 41
-11 112 -13 158 -2 46 -9 90 -16 98 -17 20 -13 78 7 109 13 21 15 31 6 50 -17
36 16 55 95 55 34 0 73 5 86 11 31 14 64 86 73 157 5 46 3 58 -20 92 -25 38
-25 40 -6 50 11 6 26 22 33 37 13 23 12 30 -5 59 -12 20 -17 41 -13 54 4 11 2
20 -4 20 -6 0 -11 9 -11 19 0 11 -6 22 -12 24 -10 4 -10 7 0 15 18 12 12 72
-10 101 -30 39 -23 46 47 49 45 2 65 -1 65 -9 0 -8 7 -6 18 4 10 10 21 14 25
11 3 -3 3 3 0 15 -3 12 -1 21 6 21 6 0 11 -4 11 -10 0 -5 21 -9 46 -8 42 0 45
3 42 23 -3 13 0 22 9 22 7 0 13 -4 13 -8 0 -5 15 -12 33 -17 20 -5 37 -18 45
-35 16 -33 32 -35 32 -3 0 13 7 29 16 37 13 11 14 9 9 -17 l-6 -29 20 24 c12
12 18 28 15 33 -4 6 -1 9 5 7 7 -3 12 -8 11 -13 -4 -20 25 -24 43 -5 20 21 33
24 42 9 4 -6 11 -8 16 -4 5 3 6 10 3 16 -4 7 0 7 13 0 11 -6 25 -7 34 -1 15 8
89 -6 140 -26 11 -4 22 3 33 20 12 18 23 24 35 20 24 -7 143 72 253 169 89 78
168 175 168 206 0 67 -160 83 -442 44 l-44 -6 -11 78 c-7 45 -28 115 -47 162
-20 45 -45 114 -57 153 -18 61 -27 74 -60 95 -24 15 -41 34 -45 52 -4 15 -44
159 -90 320 -57 199 -95 315 -120 362 -80 153 -231 237 -490 274 -108 16 -275
24 -369 19z m500 -1993 c3 -5 1 -10 -4 -10 -6 0 -11 5 -11 10 0 6 2 10 4 10 3
0 8 -4 11 -10z m-1725 -400 c0 -5 -5 -10 -11 -10 -5 0 -7 5 -4 10 3 6 8 10 11
10 2 0 4 -4 4 -10z m1409 -56 c11 -14 17 -32 14 -41 -5 -12 -3 -14 7 -8 13 8
13 6 -4 -81 -6 -29 -28 -67 -45 -78 -8 -5 -31 -10 -53 -12 -21 -1 -46 -8 -54
-14 -8 -7 -14 -8 -14 -2 0 5 -9 12 -21 15 -19 5 -20 10 -14 49 4 24 16 56 27
71 11 15 18 36 15 46 -6 26 16 51 60 66 53 19 59 19 82 -11z m-991 -207 c6 -5
17 -5 22 -2 6 3 10 -4 10 -17 0 -29 9 -42 38 -57 12 -6 22 -17 22 -23 0 -6 7
-20 17 -30 25 -27 4 -68 -36 -68 -16 0 -31 -5 -33 -11 -6 -18 -76 54 -93 94
-20 49 -20 121 0 113 8 -3 15 -1 15 3 0 11 19 9 38 -2z"/>
<path d="M5020 10940 c0 -5 5 -10 10 -10 6 0 10 5 10 10 0 6 -4 10 -10 10 -5
0 -10 -4 -10 -10z"/>
<path d="M5070 10940 c0 -5 6 -10 13 -11 6 0 20 -2 29 -4 11 -2 15 2 11 11 -6
16 -53 19 -53 4z"/>
<path d="M5676 10271 c-8 -22 -35 -70 -59 -108 -44 -69 -81 -153 -92 -208 -3
-16 -6 -79 -7 -140 -1 -86 3 -117 16 -142 12 -25 13 -33 4 -33 -7 0 -2 -6 12
-13 22 -11 60 -74 86 -142 49 -129 49 -129 49 -260 0 -89 -6 -155 -18 -210
-10 -44 -20 -93 -24 -110 -3 -16 -9 -34 -13 -40 -4 -5 -10 -23 -14 -40 -7 -28
-56 -142 -76 -175 -43 -71 -50 -98 -49 -181 2 -97 -1 -113 -24 -139 -11 -14
-13 -20 -4 -20 6 0 -1 -11 -17 -25 -18 -15 -33 -22 -40 -16 -16 12 -72 -30
-68 -51 2 -10 -3 -18 -10 -18 -17 0 -38 -25 -60 -73 -10 -20 -22 -37 -28 -37
-5 0 -10 -7 -10 -15 0 -8 -6 -15 -14 -15 -8 0 -17 -15 -20 -35 -4 -19 -11 -35
-16 -35 -5 0 -21 -11 -36 -25 -15 -14 -24 -25 -20 -25 4 0 -1 -12 -12 -27 -11
-16 -23 -39 -27 -53 -4 -14 -14 -33 -23 -42 -8 -10 -12 -18 -8 -18 3 0 -5 -18
-19 -40 -14 -22 -25 -44 -25 -49 0 -5 -7 -11 -15 -15 -8 -3 -15 -15 -15 -26 0
-11 -9 -29 -20 -40 -11 -11 -20 -29 -20 -40 0 -11 -4 -20 -10 -20 -5 0 -10 -8
-10 -18 0 -10 -9 -24 -20 -32 -15 -11 -16 -16 -7 -23 9 -7 9 -10 -1 -14 -6 -2
-10 -8 -7 -13 3 -5 -2 -15 -10 -24 -8 -8 -14 -19 -13 -23 3 -10 -32 -103 -44
-119 -10 -13 -68 3 -68 19 0 4 -4 5 -10 2 -10 -6 -11 -5 -15 32 -1 13 -7 29
-14 36 -6 8 -9 30 -7 50 3 24 1 37 -9 41 -8 3 -17 1 -20 -4 -3 -5 -11 -7 -18
-4 -7 2 -24 -7 -37 -21 -13 -14 -29 -25 -36 -25 -30 0 -18 -27 20 -45 28 -14
40 -26 38 -38 -2 -9 3 -17 9 -17 7 0 10 -3 6 -6 -3 -3 11 -34 32 -68 56 -88
59 -112 22 -175 -17 -29 -31 -56 -31 -62 0 -42 -92 29 -169 131 -14 19 -29 37
-32 40 -4 3 -15 21 -25 40 -11 19 -29 49 -40 65 -21 30 -74 181 -93 265 -5 25
-11 123 -13 218 l-3 172 30 25 c19 15 43 24 66 25 39 0 55 13 88 73 28 50 27
61 -4 53 -14 -4 -25 -2 -25 4 0 5 -15 10 -32 10 -25 0 -29 3 -18 10 12 8 9 10
-11 10 -34 0 -89 19 -89 31 0 5 -9 9 -21 9 -18 0 -17 -4 15 -42 20 -23 36 -46
36 -52 0 -6 -4 -4 -10 4 -5 8 -12 11 -17 7 -4 -5 -3 -11 3 -15 6 -4 14 -14 17
-22 4 -12 6 -11 6 3 1 10 9 17 21 17 11 0 20 -2 20 -5 0 -11 -36 -41 -64 -53
-35 -16 -60 0 -51 32 5 15 4 17 -3 7 -13 -18 -63 5 -77 37 -5 12 -13 22 -17
22 -5 0 -8 8 -8 18 0 9 -9 23 -20 30 -11 7 -20 19 -20 27 0 8 -6 18 -13 22 -6
4 -18 26 -26 48 -7 22 -20 55 -28 73 -9 18 -13 35 -10 38 8 8 72 -29 98 -57
13 -14 23 -23 22 -20 -2 2 3 11 9 19 10 12 6 20 -22 43 -19 16 -38 29 -42 29
-4 0 -57 50 -117 110 -60 61 -108 110 -105 110 3 0 -21 25 -53 55 -102 96
-115 109 -135 138 -13 18 -15 27 -7 27 7 0 23 -12 35 -27 12 -16 26 -24 30
-20 10 9 8 196 -2 245 -3 17 -10 32 -15 32 -5 0 -12 15 -17 33 -7 24 -14 31
-30 30 -15 -2 -25 6 -36 30 -14 31 -29 81 -31 102 -1 14 -71 121 -84 129 -6 4
-11 16 -11 27 0 10 -7 19 -15 19 -9 0 -15 9 -15 25 0 16 -14 36 -46 62 -25 21
-61 53 -81 71 -19 17 -39 32 -43 32 -4 0 -13 14 -20 30 -7 17 -16 30 -20 30
-4 0 -28 -39 -53 -87 -24 -49 -69 -135 -98 -193 -30 -58 -58 -115 -64 -127 -5
-12 -23 -48 -39 -80 -16 -32 -48 -98 -73 -148 -24 -49 -51 -95 -59 -101 -8 -6
-35 -14 -62 -17 -57 -7 -207 -69 -237 -97 -25 -24 -342 -137 -504 -181 -243
-66 -374 -114 -401 -149 -17 -22 -97 -70 -115 -70 -13 0 -54 -16 -91 -35 -38
-19 -79 -35 -91 -35 -21 0 -56 -37 -81 -85 -6 -12 -17 -66 -26 -120 -8 -55
-28 -179 -45 -275 -16 -96 -32 -204 -36 -240 -3 -39 -21 -105 -45 -167 -42
-107 -89 -277 -135 -483 -15 -69 -34 -150 -42 -180 -9 -30 -19 -84 -24 -120
-4 -36 -22 -96 -40 -135 -29 -65 -70 -173 -139 -370 -15 -44 -35 -96 -43 -115
-17 -36 -110 -268 -179 -445 -21 -55 -54 -144 -73 -199 -43 -123 -100 -236
-209 -414 -165 -272 -162 -259 -148 -587 12 -283 36 -506 62 -580 9 -27 27
-83 40 -124 29 -96 79 -192 165 -316 119 -173 208 -244 425 -340 79 -35 95
-38 220 -46 74 -5 149 -11 165 -14 29 -5 276 -25 548 -45 71 -5 143 -12 160
-15 71 -11 288 -14 379 -4 72 8 107 8 132 -1 33 -10 35 -15 41 -65 4 -30 5
-62 1 -70 -3 -9 -10 -129 -16 -268 l-11 -252 -30 -42 c-57 -81 -132 -268 -144
-358 -6 -54 -11 -64 -51 -101 -23 -22 -105 -81 -180 -130 l-136 -89 -39 -81
c-63 -136 -78 -195 -85 -333 -7 -129 0 -208 36 -411 10 -58 31 -211 45 -342
22 -201 25 -248 16 -313 -6 -42 -11 -83 -11 -91 0 -12 402 -14 2976 -12 l2976
3 12 35 c8 24 19 36 36 40 23 6 25 10 23 56 -1 27 -7 89 -13 139 -17 132 -7
285 31 453 l32 142 -29 45 c-16 24 -73 111 -126 193 -53 82 -114 182 -134 223
-47 94 -136 234 -179 279 -61 65 -116 192 -181 415 -20 66 -46 145 -59 175
-23 56 -52 185 -65 295 -4 33 -13 87 -19 120 -7 33 -21 103 -32 155 -11 52
-25 115 -31 140 -22 86 -21 123 2 163 12 20 28 37 35 37 7 0 54 -38 104 -85
51 -47 97 -85 102 -85 5 0 33 13 62 29 28 16 102 45 162 64 150 48 184 64 196
90 10 22 15 23 107 19 53 -2 110 -7 125 -12 15 -5 33 -7 40 -5 7 3 57 9 112
14 132 13 233 34 324 66 41 14 99 31 130 37 94 17 219 56 311 97 98 45 338
201 387 252 33 35 120 210 229 461 54 125 64 156 64 205 0 110 -21 298 -44
403 -23 102 -42 153 -144 390 -62 145 -71 184 -82 339 -5 86 -15 142 -28 176
-34 86 -221 486 -269 575 -111 208 -128 239 -163 310 -21 41 -41 91 -45 110
-3 19 -15 58 -25 85 -11 28 -24 70 -30 95 -13 47 -84 196 -128 264 -42 67
-128 246 -177 367 -30 76 -54 121 -72 136 -26 21 -27 24 -28 140 -1 125 -5
142 -85 403 -21 69 -42 148 -46 175 -10 73 -30 117 -64 140 -35 24 -52 67 -44
111 6 35 -18 137 -48 197 -10 21 -34 55 -52 75 -18 20 -45 56 -60 80 -19 31
-40 49 -73 63 -25 11 -59 31 -76 45 -34 29 -27 29 -216 -1 -52 -8 -124 -26
-161 -40 -63 -24 -69 -25 -103 -10 -20 8 -54 15 -76 15 -34 0 -45 6 -80 46
-23 26 -41 50 -41 55 0 4 -24 26 -52 49 -53 42 -114 114 -142 167 -16 32 -109
123 -126 123 -19 0 -10 -29 24 -73 19 -25 50 -73 68 -106 18 -33 57 -90 86
-126 28 -36 65 -92 81 -124 22 -42 44 -69 83 -96 103 -75 188 -97 290 -76 31
7 135 12 232 13 l176 0 40 -36 c22 -20 44 -36 50 -36 5 0 13 -12 16 -27 4 -16
15 -45 25 -65 23 -46 26 -136 4 -144 -17 -7 -152 38 -605 202 -102 36 -252 90
-335 118 l-149 53 -45 74 c-24 41 -58 97 -76 124 -17 28 -37 66 -45 85 -8 19
-31 66 -52 103 -20 37 -40 78 -44 90 -3 12 -31 65 -61 117 -30 52 -61 109 -70
125 -9 17 -30 48 -48 70 -18 22 -38 51 -45 65 -7 14 -38 56 -69 95 -31 38 -72
91 -92 118 -20 26 -71 86 -114 133 -42 46 -85 93 -94 104 -50 59 -272 190
-321 190 -11 0 -23 -14 -34 -39z m-2929 -1482 c-14 -8 -22 -8 -30 0 -8 8 -3
11 19 11 25 -1 27 -2 11 -11z m507 -5091 c33 -18 72 -39 86 -48 39 -25 102
-51 95 -40 -8 13 38 13 51 0 11 -11 74 6 74 20 0 16 39 18 45 2 7 -18 -9 -33
-68 -63 -74 -38 -220 -5 -318 72 -29 23 -36 35 -35 59 0 16 2 30 4 30 3 0 32
-14 66 -32z m-40 -69 c18 -27 82 -71 121 -84 17 -5 34 -20 40 -32 5 -13 13
-23 17 -23 5 0 8 -7 8 -16 0 -28 -42 -5 -103 57 -32 33 -64 59 -70 59 -19 0
-34 14 -41 38 -9 28 8 29 28 1z"/>
<path d="M4906 10281 c-3 -4 -18 -11 -34 -14 -34 -7 -102 -67 -102 -90 0 -9
-5 -17 -11 -17 -7 0 -9 -10 -5 -26 6 -22 4 -25 -10 -20 -16 6 -16 4 1 -14 12
-13 18 -33 17 -50 -2 -20 4 -33 24 -49 14 -11 30 -18 34 -16 5 3 11 1 15 -5
10 -17 68 -11 95 10 14 11 30 20 37 20 6 0 17 14 25 30 7 17 16 30 19 30 3 0
7 21 8 48 3 73 5 82 13 82 15 0 8 21 -9 27 -10 4 -27 17 -38 28 -22 24 -71 40
-79 26z"/>
<path d="M5129 10017 c-39 -12 -60 -25 -69 -43 -8 -14 -30 -37 -50 -52 -19
-15 -35 -35 -35 -46 0 -12 -15 -26 -42 -40 -23 -11 -43 -28 -43 -36 0 -9 -5
-21 -11 -27 -8 -8 -6 -13 9 -17 30 -10 33 -44 11 -97 -12 -26 -18 -53 -14 -59
4 -6 -1 -20 -10 -30 -11 -12 -13 -20 -5 -25 5 -3 8 -10 5 -15 -3 -5 1 -20 10
-33 8 -13 12 -27 8 -31 -8 -8 -9 -13 -12 -41 0 -8 -7 -12 -15 -9 -22 8 -49
-60 -41 -107 4 -21 11 -42 17 -45 5 -3 18 -26 28 -50 15 -34 29 -49 64 -66
l44 -21 52 56 c29 32 58 57 65 57 6 0 24 11 38 24 15 14 36 27 47 31 20 6 24
20 20 80 0 18 7 39 19 52 17 18 20 30 15 67 -4 25 -2 51 3 58 5 7 8 32 5 55
-3 34 -8 42 -29 48 -14 3 -23 9 -20 12 4 3 2 14 -4 24 -7 14 -5 21 11 31 11 7
20 18 20 24 0 6 16 28 35 50 34 38 44 64 25 64 -5 0 -9 10 -9 23 1 12 -2 40
-6 62 -4 22 -8 45 -9 50 -6 39 -50 47 -127 22z"/>
<path d="M5442 9370 c-24 -26 -25 -28 -42 -135 -14 -89 -65 -256 -96 -316 -13
-26 -24 -52 -24 -58 0 -10 -56 -130 -85 -181 -13 -22 -13 -25 3 -28 9 -1 37 1
61 6 38 6 46 12 54 37 5 17 15 37 22 45 6 8 17 41 24 73 7 31 17 57 22 57 5 0
9 8 9 18 0 22 23 86 36 103 6 8 10 24 9 36 -1 12 2 20 6 18 9 -6 19 31 19 73
0 18 5 43 11 55 15 26 23 187 10 187 -5 0 -11 8 -13 17 -3 15 -6 14 -26 -7z"/>
<path d="M4520 9020 c0 -6 3 -10 8 -11 4 0 15 -2 25 -4 10 -2 17 1 15 7 -5 14
-48 21 -48 8z"/>
<path d="M5004 8712 c-80 -85 -105 -105 -210 -163 -65 -36 -144 -75 -174 -85
-30 -10 -60 -22 -67 -27 -14 -10 -199 -10 -252 -1 -20 4 -42 11 -48 16 -16 13
-46 2 -40 -15 2 -6 11 -12 19 -12 8 0 22 -5 29 -12 28 -22 179 -63 217 -58 20
3 55 8 77 10 33 5 120 41 208 86 32 17 40 0 33 -67 -4 -34 -12 -80 -20 -101
-7 -21 -16 -57 -19 -80 -6 -37 -4 -44 21 -65 16 -13 27 -29 24 -36 -2 -7 4
-12 13 -12 9 0 14 -4 10 -9 -3 -5 -1 -12 4 -15 6 -4 6 -18 1 -35 -5 -19 -4
-33 3 -40 9 -9 8 -14 -3 -22 -11 -8 -9 -9 10 -3 14 3 27 8 29 10 5 4 1 111 -5
144 -20 109 -25 146 -30 226 -6 88 -6 92 16 104 12 6 19 14 16 17 -5 6 10 17
59 43 11 6 34 19 50 30 17 11 37 23 45 27 24 11 60 57 60 77 0 14 6 17 25 14
21 -4 24 -2 20 12 -3 9 3 24 15 35 11 10 20 24 20 32 0 7 9 13 19 13 17 0 37
27 27 37 -14 14 -126 -70 -126 -95 0 -14 -71 -72 -89 -72 -9 0 -23 -6 -31 -12
-9 -9 -9 -5 2 12 9 14 23 24 33 22 9 -2 14 1 11 6 -10 16 5 44 20 38 8 -3 14
-1 14 5 0 6 14 31 30 56 53 78 28 65 -66 -35z"/>
<path d="M4020 8556 c0 -2 7 -7 16 -10 8 -3 12 -2 9 4 -6 10 -25 14 -25 6z"/>
<path d="M4120 8493 c0 -5 18 -18 40 -31 31 -18 40 -19 40 -8 0 8 -14 22 -32
30 -34 18 -48 20 -48 9z"/>
<path d="M4275 8110 c3 -5 8 -10 11 -10 2 0 4 5 4 10 0 6 -5 10 -11 10 -5 0
-7 -4 -4 -10z"/>
</g>
</svg>
